<svg xmlns="http://www.w3.org/2000/svg" viewBox="0 0 512 512" role="img" aria-label="Kanban Note icon">
  <rect width="512" height="512" rx="112" fill="#050806"/>
  <rect x="44" y="44" width="424" height="424" rx="82" fill="#08130d" stroke="#31e981" stroke-width="16"/>
  <rect x="104" y="112" width="92" height="288" rx="22" fill="#0f2418" stroke="#2fd673" stroke-width="10"/>
  <rect x="210" y="112" width="92" height="288" rx="22" fill="#0f2418" stroke="#2fd673" stroke-width="10"/>
  <rect x="316" y="112" width="92" height="288" rx="22" fill="#0f2418" stroke="#2fd673" stroke-width="10"/>
  <rect x="124" y="140" width="52" height="56" rx="13" fill="#35f28a"/>
  <rect x="230" y="212" width="52" height="72" rx="13" fill="#35f28a"/>
  <rect x="336" y="154" width="52" height="104" rx="13" fill="#35f28a"/>
  <path d="M160 316c0-18 14-32 32-32h128l64 64v52c0 18-14 32-32 32H192c-18 0-32-14-32-32v-84z" fill="#e9fff1"/>
  <path d="M320 284v46c0 10 8 18 18 18h46l-64-64z" fill="#7cffae"/>
  <path d="M204 344h86M204 382h112" stroke="#07140d" stroke-width="18" stroke-linecap="round"/>
  <circle cx="392" cy="112" r="22" fill="#35f28a"/>
</svg>
